<?xml version="1.0" encoding="UTF-8"?>
<!DOCTYPE svg PUBLIC "-//W3C//DTD SVG 1.1//EN" "http://www.w3.org/Graphics/SVG/1.1/DTD/svg11.dtd">
<!-- Creator: CorelDRAW -->
<svg xmlns="http://www.w3.org/2000/svg" xml:space="preserve" width="3.6in" height="3.6in" version="1.1" style="shape-rendering:geometricPrecision; text-rendering:geometricPrecision; image-rendering:optimizeQuality; fill-rule:evenodd; clip-rule:evenodd"
viewBox="0 0 3600 3600"
 xmlns:xlink="http://www.w3.org/1999/xlink"
 xmlns:xodm="http://www.corel.com/coreldraw/odm/2003">
 <defs>
  <style type="text/css">
   <![CDATA[
    .fil0 {fill:#1A4731}
    .fil1 {fill:#E5E5E5}
   ]]>
  </style>
 </defs>
 <g id="Layer_x0020_1">
  <metadata id="CorelCorpID_0Corel-Layer"/>
  <circle class="fil0" cx="1800" cy="1800" r="1727.67"/>
  <path class="fil1" d="M1786.21 1753.01c800.15,0.63 725.5,-130.06 823.77,-158.8 -46.79,122.15 -143.19,211.49 -254.15,266.87 -474.48,236.83 -839.84,57.25 -1252.89,290.62 -150.61,85.09 -326.48,252.7 -350.63,418.43l598.1 -0.34c360.68,1.23 699.8,38.37 996.96,-108.72 451.43,-223.43 651.48,-779.35 371.45,-1148.92 -240.11,-316.89 -557.65,-285.72 -914.45,-284.75 -197.93,0.52 -361.5,-27.59 -453.34,101.56l-372.27 850.21c264.19,-180.34 462.65,-226.43 807.45,-226.16z"/>
 </g>
</svg>
