<?xml version="1.0" encoding="UTF-8"?>
<!DOCTYPE svg PUBLIC "-//W3C//DTD SVG 1.1//EN" "http://www.w3.org/Graphics/SVG/1.1/DTD/svg11.dtd">
<!-- Creator: CorelDRAW -->
<svg xmlns="http://www.w3.org/2000/svg" xml:space="preserve" width="3.6in" height="3.6in" version="1.1" style="shape-rendering:geometricPrecision; text-rendering:geometricPrecision; image-rendering:optimizeQuality; fill-rule:evenodd; clip-rule:evenodd"
viewBox="0 0 3600 3600"
 xmlns:xlink="http://www.w3.org/1999/xlink"
 xmlns:xodm="http://www.corel.com/coreldraw/odm/2003">
 <defs>
  <style type="text/css">
   <![CDATA[
    .fil0 {fill:#1A4731}
   ]]>
  </style>
 </defs>
 <g id="Layer_x0020_1">
  <metadata id="CorelCorpID_0Corel-Layer"/>
  <path class="fil0" d="M1785.43 1750.36c845.19,0.67 766.33,-137.37 870.14,-167.73 -49.42,129.03 -151.25,223.4 -268.46,281.89 -501.19,250.16 -887.12,60.48 -1323.42,306.98 -159.09,89.88 -344.86,266.93 -370.37,441.98l631.77 -0.36c380.98,1.3 739.19,40.53 1053.08,-114.83 476.84,-236 688.15,-823.22 392.36,-1213.59 -253.63,-334.73 -589.04,-301.8 -965.93,-300.78 -209.07,0.56 -381.85,-29.15 -478.86,107.28l-393.23 898.07c279.06,-190.49 488.69,-239.17 852.91,-238.89z"/>
 </g>
</svg>
